<svg width="32" height="32" viewBox="0 0 32 32" fill="none" xmlns="http://www.w3.org/2000/svg">
<path d="M16.8266 8.77972C16.8296 8.35216 16.4855 8.00307 16.0579 8.00002C15.6304 7.99697 15.2813 8.3411 15.2782 8.76866L15.2322 15.2205L8.77972 15.1744C8.35216 15.1714 8.00307 15.5155 8.00002 15.9431C7.99697 16.3706 8.3411 16.7197 8.76866 16.7228L15.2211 16.7689L15.175 23.2203C15.172 23.6478 15.5161 23.9969 15.9437 24C16.3712 24.003 16.7203 23.6589 16.7234 23.2313L16.7694 16.7799L23.2203 16.826C23.6478 16.829 23.9969 16.4849 24 16.0573C24.003 15.6298 23.6589 15.2807 23.2313 15.2776L16.7805 15.2316L16.8266 8.77972Z" fill="#333333"/>
</svg>
