<svg width="24" height="24" viewBox="0 0 24 24" fill="none" xmlns="http://www.w3.org/2000/svg">
<path d="M14 21L12 23L10 21H4.99509C3.89323 21 3 20.1074 3 19.0049V4.99509C3 3.89323 3.89262 3 4.99509 3H19.0049C20.1068 3 21 3.89262 21 4.99509V19.0049C21 20.1068 20.1074 21 19.0049 21H14ZM19 19V5H5V19H10.8284L12 20.1716L13.1716 19H19ZM7.97216 18.1808C7.35347 17.9129 6.76719 17.5843 6.22083 17.2024C7.46773 15.2753 9.63602 14 12.1022 14C14.5015 14 16.6189 15.2071 17.8801 17.0472C17.3438 17.4436 16.7664 17.7877 16.1555 18.0718C15.2472 16.8166 13.77 16 12.1022 16C10.3865 16 8.87271 16.8641 7.97216 18.1808ZM12 13C10.067 13 8.5 11.433 8.5 9.5C8.5 7.567 10.067 6 12 6C13.933 6 15.5 7.567 15.5 9.5C15.5 11.433 13.933 13 12 13ZM12 11C12.8284 11 13.5 10.3284 13.5 9.5C13.5 8.67157 12.8284 8 12 8C11.1716 8 10.5 8.67157 10.5 9.5C10.5 10.3284 11.1716 11 12 11Z" fill="#333333"/>
<path d="M6.2207 17.2024C6.76706 17.5843 7.35334 17.9129 7.97203 18.1808C8.87258 16.8641 10.3864 16 12.1021 16C13.7699 16 15.2471 16.8166 16.1554 18.0718C16.7663 17.7877 17.3437 17.4436 17.88 17.0472C16.6188 15.2071 14.5014 14 12.1021 14C9.63589 14 7.4676 15.2753 6.2207 17.2024Z" fill="#2466FF"/>
<path d="M8.49987 9.5C8.49987 11.433 10.0669 13 11.9999 13C13.9329 13 15.4999 11.433 15.4999 9.5C15.4999 7.567 13.9329 6 11.9999 6C10.0669 6 8.49987 7.567 8.49987 9.5Z" fill="#2466FF"/>
<path d="M13.5 9.5C13.5 10.3284 12.8284 11 12 11C11.1716 11 10.5 10.3284 10.5 9.5C10.5 8.67157 11.1716 8 12 8C12.8284 8 13.5 8.67157 13.5 9.5Z" fill="white"/>
</svg>
