<svg width="44" height="44" viewBox="0 0 44 44" fill="none" xmlns="http://www.w3.org/2000/svg">
<g clip-path="url(#clip0_11_1116)">
<rect width="44" height="44" rx="16" fill="url(#paint0_linear_11_1116)"/>
<g filter="url(#filter0_d_11_1116)">
<path d="M16.5049 12H27.5049C27.8196 12 28.116 12.1482 28.3049 12.4L31.0049 16V31C31.0049 31.5523 30.5572 32 30.0049 32H14.0049C13.4526 32 13.0049 31.5523 13.0049 31V16L15.7049 12.4C15.8937 12.1482 16.1901 12 16.5049 12ZM29.0049 18H15.0049V30H29.0049V18ZM28.5049 16L27.0049 14H17.0049L15.5049 16H28.5049ZM19.0049 20V22C19.0049 23.6569 20.348 25 22.0049 25C23.6617 25 25.0049 23.6569 25.0049 22V20H27.0049V22C27.0049 24.7614 24.7663 27 22.0049 27C19.2435 27 17.0049 24.7614 17.0049 22V20H19.0049Z" fill="white"/>
</g>
</g>
<defs>
<filter id="filter0_d_11_1116" x="9.00488" y="10" width="26" height="28" filterUnits="userSpaceOnUse" color-interpolation-filters="sRGB">
<feFlood flood-opacity="0" result="BackgroundImageFix"/>
<feColorMatrix in="SourceAlpha" type="matrix" values="0 0 0 0 0 0 0 0 0 0 0 0 0 0 0 0 0 0 127 0" result="hardAlpha"/>
<feOffset dy="2"/>
<feGaussianBlur stdDeviation="2"/>
<feComposite in2="hardAlpha" operator="out"/>
<feColorMatrix type="matrix" values="0 0 0 0 0.804857 0 0 0 0 0.235137 0 0 0 0 0.080927 0 0 0 1 0"/>
<feBlend mode="normal" in2="BackgroundImageFix" result="effect1_dropShadow_11_1116"/>
<feBlend mode="normal" in="SourceGraphic" in2="effect1_dropShadow_11_1116" result="shape"/>
</filter>
<linearGradient id="paint0_linear_11_1116" x1="22" y1="0" x2="22" y2="44" gradientUnits="userSpaceOnUse">
<stop stop-color="#FFA66A"/>
<stop offset="1" stop-color="#E25033"/>
</linearGradient>
<clipPath id="clip0_11_1116">
<rect width="44" height="44" rx="16" fill="white"/>
</clipPath>
</defs>
</svg>
