<svg width="44" height="44" viewBox="0 0 44 44" fill="none" xmlns="http://www.w3.org/2000/svg">
<g clip-path="url(#clip0_11_1047)">
<rect width="44" height="44" rx="16" fill="url(#paint0_linear_11_1047)"/>
<g filter="url(#filter0_d_11_1047)">
<path d="M24.0049 12.0028C28.4232 12.0028 32.0049 15.5845 32.0049 20.0028C32.0049 23.2475 30.0733 26.0409 27.2973 27.2961C26.0422 30.0718 23.249 32.0028 20.0049 32.0028C15.5866 32.0028 12.0049 28.4211 12.0049 24.0028C12.0049 20.7587 13.9359 17.9655 16.7112 16.7101C17.9668 13.9344 20.7603 12.0028 24.0049 12.0028ZM20.0049 18.0028C16.6912 18.0028 14.0049 20.6891 14.0049 24.0028C14.0049 27.3166 16.6912 30.0028 20.0049 30.0028C23.3186 30.0028 26.0049 27.3166 26.0049 24.0028C26.0049 20.6891 23.3186 18.0028 20.0049 18.0028ZM21.0049 19.0028V20.0028H23.0049V22.0028H19.0049C18.7287 22.0028 18.5049 22.2267 18.5049 22.5028C18.5049 22.7483 18.6818 22.9525 18.915 22.9948L19.0049 23.0028H21.0049C22.3856 23.0028 23.5049 24.1221 23.5049 25.5028C23.5049 26.8836 22.3856 28.0028 21.0049 28.0028V29.0028H19.0049V28.0028H17.0049V26.0028H21.0049C21.281 26.0028 21.5049 25.779 21.5049 25.5028C21.5049 25.2574 21.328 25.0532 21.0948 25.0109L21.0049 25.0028H19.0049C17.6242 25.0028 16.5049 23.8836 16.5049 22.5028C16.5049 21.1221 17.6242 20.0028 19.0049 20.0028V19.0028H21.0049ZM24.0049 14.0028C22.2214 14.0028 20.6196 14.781 19.5206 16.0163C19.6813 16.0076 19.8425 16.0028 20.0049 16.0028C24.4232 16.0028 28.0049 19.5845 28.0049 24.0028C28.0049 24.1655 28 24.3271 27.9905 24.4873C29.2265 23.3886 30.0049 21.7866 30.0049 20.0028C30.0049 16.6891 27.3186 14.0028 24.0049 14.0028Z" fill="white"/>
</g>
</g>
<defs>
<filter id="filter0_d_11_1047" x="8.00488" y="10.0028" width="28" height="28" filterUnits="userSpaceOnUse" color-interpolation-filters="sRGB">
<feFlood flood-opacity="0" result="BackgroundImageFix"/>
<feColorMatrix in="SourceAlpha" type="matrix" values="0 0 0 0 0 0 0 0 0 0 0 0 0 0 0 0 0 0 127 0" result="hardAlpha"/>
<feOffset dy="2"/>
<feGaussianBlur stdDeviation="2"/>
<feComposite in2="hardAlpha" operator="out"/>
<feColorMatrix type="matrix" values="0 0 0 0 0.00358123 0 0 0 0 0.244381 0 0 0 0 0.801232 0 0 0 1 0"/>
<feBlend mode="normal" in2="BackgroundImageFix" result="effect1_dropShadow_11_1047"/>
<feBlend mode="normal" in="SourceGraphic" in2="effect1_dropShadow_11_1047" result="shape"/>
</filter>
<linearGradient id="paint0_linear_11_1047" x1="22" y1="0" x2="22" y2="44" gradientUnits="userSpaceOnUse">
<stop stop-color="#87ABFF"/>
<stop offset="1" stop-color="#2466FF"/>
</linearGradient>
<clipPath id="clip0_11_1047">
<rect width="44" height="44" rx="16" fill="white"/>
</clipPath>
</defs>
</svg>
