<svg width="44" height="44" viewBox="0 0 44 44" fill="none" xmlns="http://www.w3.org/2000/svg">
<g clip-path="url(#clip0_11_1121)">
<rect width="44" height="44" rx="16" fill="url(#paint0_linear_11_1121)"/>
<g filter="url(#filter0_d_11_1121)">
<path d="M20.0049 30.9998H13.0049C12.4526 30.9998 12.0049 30.5521 12.0049 29.9998V13.9998C12.0049 13.4475 12.4526 12.9998 13.0049 12.9998H20.0049C20.0049 14.1043 20.9003 14.9998 22.0049 14.9998C23.1095 14.9998 24.0049 14.1043 24.0049 12.9998H31.0049C31.5572 12.9998 32.0049 13.4475 32.0049 13.9998V29.9998C32.0049 30.5521 31.5572 30.9998 31.0049 30.9998H24.0049C24.0049 29.8952 23.1095 28.9998 22.0049 28.9998C20.9003 28.9998 20.0049 29.8952 20.0049 30.9998ZM18.54 28.9998C19.2316 27.8042 20.5243 26.9998 22.0049 26.9998C23.4854 26.9998 24.7781 27.8042 25.4698 28.9998H30.0049V14.9998H25.4698C24.7781 16.1954 23.4854 16.9998 22.0049 16.9998C20.5243 16.9998 19.2316 16.1954 18.54 14.9998H14.0049V28.9998H18.54ZM16.0049 17.9998H18.0049V25.9998H16.0049V17.9998ZM26.0049 17.9998H28.0049V25.9998H26.0049V17.9998Z" fill="white"/>
</g>
</g>
<defs>
<filter id="filter0_d_11_1121" x="8.00488" y="10.9998" width="28" height="26" filterUnits="userSpaceOnUse" color-interpolation-filters="sRGB">
<feFlood flood-opacity="0" result="BackgroundImageFix"/>
<feColorMatrix in="SourceAlpha" type="matrix" values="0 0 0 0 0 0 0 0 0 0 0 0 0 0 0 0 0 0 127 0" result="hardAlpha"/>
<feOffset dy="2"/>
<feGaussianBlur stdDeviation="2"/>
<feComposite in2="hardAlpha" operator="out"/>
<feColorMatrix type="matrix" values="0 0 0 0 0.804857 0 0 0 0 0.235137 0 0 0 0 0.080927 0 0 0 1 0"/>
<feBlend mode="normal" in2="BackgroundImageFix" result="effect1_dropShadow_11_1121"/>
<feBlend mode="normal" in="SourceGraphic" in2="effect1_dropShadow_11_1121" result="shape"/>
</filter>
<linearGradient id="paint0_linear_11_1121" x1="22" y1="0" x2="22" y2="44" gradientUnits="userSpaceOnUse">
<stop stop-color="#FFA66A"/>
<stop offset="1" stop-color="#E25033"/>
</linearGradient>
<clipPath id="clip0_11_1121">
<rect width="44" height="44" rx="16" fill="white"/>
</clipPath>
</defs>
</svg>
