<svg width="44" height="44" viewBox="0 0 44 44" fill="none" xmlns="http://www.w3.org/2000/svg">
<g clip-path="url(#clip0_11_1073)">
<rect width="44" height="44" rx="16" fill="url(#paint0_linear_11_1073)"/>
<g filter="url(#filter0_d_11_1073)">
<path d="M24.0049 30.0028V32.0028H12.0049V30.0028H24.0049ZM24.5907 10.6891L32.3688 18.4673L30.9546 19.8815L29.894 19.5279L27.4191 22.0028L33.076 27.6597L31.6617 29.0739L26.0049 23.417L23.6007 25.8212L23.8836 26.9525L22.4693 28.3668L14.6912 20.5886L16.1054 19.1744L17.2368 19.4572L23.53 13.164L23.1765 12.1033L24.5907 10.6891ZM25.2978 14.2246L18.2267 21.2957L21.7622 24.8312L28.8333 17.7601L25.2978 14.2246Z" fill="white"/>
</g>
</g>
<defs>
<filter id="filter0_d_11_1073" x="8.00488" y="8.68909" width="29.0713" height="29.3137" filterUnits="userSpaceOnUse" color-interpolation-filters="sRGB">
<feFlood flood-opacity="0" result="BackgroundImageFix"/>
<feColorMatrix in="SourceAlpha" type="matrix" values="0 0 0 0 0 0 0 0 0 0 0 0 0 0 0 0 0 0 127 0" result="hardAlpha"/>
<feOffset dy="2"/>
<feGaussianBlur stdDeviation="2"/>
<feComposite in2="hardAlpha" operator="out"/>
<feColorMatrix type="matrix" values="0 0 0 0 0.00358123 0 0 0 0 0.244381 0 0 0 0 0.801232 0 0 0 1 0"/>
<feBlend mode="normal" in2="BackgroundImageFix" result="effect1_dropShadow_11_1073"/>
<feBlend mode="normal" in="SourceGraphic" in2="effect1_dropShadow_11_1073" result="shape"/>
</filter>
<linearGradient id="paint0_linear_11_1073" x1="22" y1="0" x2="22" y2="44" gradientUnits="userSpaceOnUse">
<stop stop-color="#87ABFF"/>
<stop offset="1" stop-color="#2466FF"/>
</linearGradient>
<clipPath id="clip0_11_1073">
<rect width="44" height="44" rx="16" fill="white"/>
</clipPath>
</defs>
</svg>
