<svg width="44" height="44" viewBox="0 0 44 44" fill="none" xmlns="http://www.w3.org/2000/svg">
<g clip-path="url(#clip0_11_1111)">
<rect width="44" height="44" rx="16" fill="url(#paint0_linear_11_1111)"/>
<g filter="url(#filter0_d_11_1111)">
<path d="M12 15L19 12L25 15L31.303 12.2987C31.5569 12.1899 31.8508 12.3075 31.9596 12.5613C31.9862 12.6236 32 12.6906 32 12.7583V29L25 32L19 29L12.697 31.7013C12.4431 31.8101 12.1492 31.6925 12.0404 31.4387C12.0138 31.3765 12 31.3094 12 31.2417V15ZM26 29.3955L30 27.6812V15.0331L26 16.7474V29.3955ZM24 29.2639V16.7361L20 14.7361V27.2639L24 29.2639ZM18 27.2526V14.6045L14 16.3188V28.9669L18 27.2526Z" fill="white"/>
</g>
</g>
<defs>
<filter id="filter0_d_11_1111" x="8" y="10" width="28" height="28" filterUnits="userSpaceOnUse" color-interpolation-filters="sRGB">
<feFlood flood-opacity="0" result="BackgroundImageFix"/>
<feColorMatrix in="SourceAlpha" type="matrix" values="0 0 0 0 0 0 0 0 0 0 0 0 0 0 0 0 0 0 127 0" result="hardAlpha"/>
<feOffset dy="2"/>
<feGaussianBlur stdDeviation="2"/>
<feComposite in2="hardAlpha" operator="out"/>
<feColorMatrix type="matrix" values="0 0 0 0 0.804857 0 0 0 0 0.235137 0 0 0 0 0.080927 0 0 0 1 0"/>
<feBlend mode="normal" in2="BackgroundImageFix" result="effect1_dropShadow_11_1111"/>
<feBlend mode="normal" in="SourceGraphic" in2="effect1_dropShadow_11_1111" result="shape"/>
</filter>
<linearGradient id="paint0_linear_11_1111" x1="22" y1="0" x2="22" y2="44" gradientUnits="userSpaceOnUse">
<stop stop-color="#FFA66A"/>
<stop offset="1" stop-color="#E25033"/>
</linearGradient>
<clipPath id="clip0_11_1111">
<rect width="44" height="44" rx="16" fill="white"/>
</clipPath>
</defs>
</svg>
