<svg width="44" height="44" viewBox="0 0 44 44" fill="none" xmlns="http://www.w3.org/2000/svg">
<g clip-path="url(#clip0_11_1143)">
<rect width="44" height="44" rx="16" fill="url(#paint0_linear_11_1143)"/>
<g filter="url(#filter0_d_11_1143)">
<path d="M32 27.0022C31.999 29.8731 29.9816 32.2726 27.2872 32.8616L26.6492 30.9476C27.8532 30.7511 28.8765 30.0171 29.4649 29H27C25.8954 29 25 28.1046 25 27V23C25 21.8954 25.8954 21 27 21H29.9381C29.446 17.0537 26.0796 14 22 14C17.9204 14 14.554 17.0537 14.0619 21H17C18.1046 21 19 21.8954 19 23V27C19 28.1046 18.1046 29 17 29H14C12.8954 29 12 28.1046 12 27V22C12 16.4771 16.4771 12 22 12C27.5228 12 32 16.4771 32 22V22.9987V23V27V27.0022ZM30 27V23H27V27H30ZM14 23V27H17V23H14Z" fill="white"/>
</g>
</g>
<defs>
<filter id="filter0_d_11_1143" x="8" y="10" width="28" height="28.8616" filterUnits="userSpaceOnUse" color-interpolation-filters="sRGB">
<feFlood flood-opacity="0" result="BackgroundImageFix"/>
<feColorMatrix in="SourceAlpha" type="matrix" values="0 0 0 0 0 0 0 0 0 0 0 0 0 0 0 0 0 0 127 0" result="hardAlpha"/>
<feOffset dy="2"/>
<feGaussianBlur stdDeviation="2"/>
<feComposite in2="hardAlpha" operator="out"/>
<feColorMatrix type="matrix" values="0 0 0 0 0.242869 0 0 0 0 0.253282 0 0 0 0 0.812124 0 0 0 1 0"/>
<feBlend mode="normal" in2="BackgroundImageFix" result="effect1_dropShadow_11_1143"/>
<feBlend mode="normal" in="SourceGraphic" in2="effect1_dropShadow_11_1143" result="shape"/>
</filter>
<linearGradient id="paint0_linear_11_1143" x1="22" y1="0" x2="22" y2="44" gradientUnits="userSpaceOnUse">
<stop stop-color="#88A6FF"/>
<stop offset="1" stop-color="#5150FD"/>
</linearGradient>
<clipPath id="clip0_11_1143">
<rect width="44" height="44" rx="16" fill="white"/>
</clipPath>
</defs>
</svg>
