<svg width="44" height="44" viewBox="0 0 44 44" fill="none" xmlns="http://www.w3.org/2000/svg">
<g clip-path="url(#clip0_11_1106)">
<rect width="44" height="44" rx="16" fill="url(#paint0_linear_11_1106)"/>
<g filter="url(#filter0_d_11_1106)">
<path d="M28.364 28.3641C31.8787 24.8493 31.8787 19.1509 28.364 15.6361L29.7782 14.2219C34.0739 18.5177 34.0739 25.4825 29.7782 29.7783L28.364 28.3641ZM15.636 15.6361C12.1213 19.1509 12.1213 24.8493 15.636 28.3641L14.2218 29.7783C9.92606 25.4825 9.92606 18.5177 14.2218 14.2219L15.636 15.6361ZM25.5355 25.5355C27.4882 23.5829 27.4882 20.4171 25.5355 18.4645L26.9497 17.0502C29.6834 19.7839 29.6834 24.2161 26.9497 26.9497L25.5355 25.5355ZM18.4645 18.4645C16.5118 20.4171 16.5118 23.5829 18.4645 25.5355L17.0502 26.9497C14.3166 24.2161 14.3166 19.7839 17.0502 17.0502L18.4645 18.4645ZM22 24.0001C23.1046 24.0001 24 23.1046 24 22.0001C24 20.8955 23.1046 20.0001 22 20.0001C20.8954 20.0001 20 20.8955 20 22.0001C20 23.1046 20.8954 24.0001 22 24.0001Z" fill="white"/>
</g>
</g>
<defs>
<filter id="filter0_d_11_1106" x="7" y="12.2219" width="30" height="23.5564" filterUnits="userSpaceOnUse" color-interpolation-filters="sRGB">
<feFlood flood-opacity="0" result="BackgroundImageFix"/>
<feColorMatrix in="SourceAlpha" type="matrix" values="0 0 0 0 0 0 0 0 0 0 0 0 0 0 0 0 0 0 127 0" result="hardAlpha"/>
<feOffset dy="2"/>
<feGaussianBlur stdDeviation="2"/>
<feComposite in2="hardAlpha" operator="out"/>
<feColorMatrix type="matrix" values="0 0 0 0 0.804857 0 0 0 0 0.235137 0 0 0 0 0.080927 0 0 0 1 0"/>
<feBlend mode="normal" in2="BackgroundImageFix" result="effect1_dropShadow_11_1106"/>
<feBlend mode="normal" in="SourceGraphic" in2="effect1_dropShadow_11_1106" result="shape"/>
</filter>
<linearGradient id="paint0_linear_11_1106" x1="22" y1="0" x2="22" y2="44" gradientUnits="userSpaceOnUse">
<stop stop-color="#FFA66A"/>
<stop offset="1" stop-color="#E25033"/>
</linearGradient>
<clipPath id="clip0_11_1106">
<rect width="44" height="44" rx="16" fill="white"/>
</clipPath>
</defs>
</svg>
