<svg width="44" height="44" viewBox="0 0 44 44" fill="none" xmlns="http://www.w3.org/2000/svg">
<g clip-path="url(#clip0_11_1100)">
<rect width="44" height="44" rx="16" fill="url(#paint0_linear_11_1100)"/>
<g filter="url(#filter0_d_11_1100)">
<path d="M16.2351 16.4533C14.851 17.8915 14 19.8464 14 22C14 26.4183 17.5817 30 22 30C23.0808 30 24.1116 29.7857 25.0521 29.3972C25.1671 28.6467 24.9148 27.9266 24.8116 27.6746C24.582 27.115 23.8241 26.1582 22.5589 24.8308C22.2212 24.4758 22.2429 24.2035 22.3636 23.3943L22.3775 23.3029C22.4595 22.7486 22.5971 22.4209 24.4622 22.1248C25.4097 21.9746 25.6589 22.3533 26.0043 22.8777C26.0425 22.9358 26.0807 22.9928 26.1198 23.0499C26.4479 23.5297 26.691 23.6394 27.0582 23.8064C27.2227 23.881 27.428 23.9751 27.7031 24.1314C28.3551 24.504 28.3551 24.9247 28.3551 25.8472V25.9518C28.3551 26.3434 28.3168 26.6872 28.2566 26.9859C29.3478 25.6185 30 23.8854 30 22C30 18.7009 28.003 15.8682 25.1519 14.6448C24.5987 15.0181 23.8398 15.5473 23.575 15.91C23.4396 16.0954 23.2482 17.0417 22.6257 17.1198C22.4626 17.1402 22.2438 17.1259 22.012 17.111C21.3905 17.0706 20.5402 17.0161 20.268 17.755C20.0952 18.2232 20.0648 19.4944 20.6239 20.1543C20.7134 20.2597 20.7307 20.4547 20.6699 20.6735C20.59 20.9608 20.4286 21.1356 20.3783 21.1717C20.2819 21.1163 20.0896 20.8931 19.9594 20.7412C19.6455 20.3765 19.254 19.9223 18.748 19.7818C18.5639 19.7308 18.3617 19.6887 18.1655 19.6474C17.6164 19.5323 16.9944 19.4013 16.8499 19.093C16.7444 18.8672 16.7449 18.5562 16.7453 18.2276C16.7453 17.8112 16.7453 17.3403 16.5413 16.8826C16.4625 16.7054 16.3569 16.5645 16.2351 16.4533ZM22 32C16.4771 32 12 27.5228 12 22C12 16.4771 16.4771 12 22 12C27.5228 12 32 16.4771 32 22C32 27.5228 27.5228 32 22 32Z" fill="white"/>
</g>
</g>
<defs>
<filter id="filter0_d_11_1100" x="8" y="10" width="28" height="28" filterUnits="userSpaceOnUse" color-interpolation-filters="sRGB">
<feFlood flood-opacity="0" result="BackgroundImageFix"/>
<feColorMatrix in="SourceAlpha" type="matrix" values="0 0 0 0 0 0 0 0 0 0 0 0 0 0 0 0 0 0 127 0" result="hardAlpha"/>
<feOffset dy="2"/>
<feGaussianBlur stdDeviation="2"/>
<feComposite in2="hardAlpha" operator="out"/>
<feColorMatrix type="matrix" values="0 0 0 0 0.804857 0 0 0 0 0.235137 0 0 0 0 0.080927 0 0 0 1 0"/>
<feBlend mode="normal" in2="BackgroundImageFix" result="effect1_dropShadow_11_1100"/>
<feBlend mode="normal" in="SourceGraphic" in2="effect1_dropShadow_11_1100" result="shape"/>
</filter>
<linearGradient id="paint0_linear_11_1100" x1="22" y1="0" x2="22" y2="44" gradientUnits="userSpaceOnUse">
<stop stop-color="#FFA66A"/>
<stop offset="1" stop-color="#E25033"/>
</linearGradient>
<clipPath id="clip0_11_1100">
<rect width="44" height="44" rx="16" fill="white"/>
</clipPath>
</defs>
</svg>
