<svg width="44" height="44" viewBox="0 0 44 44" fill="none" xmlns="http://www.w3.org/2000/svg">
<g clip-path="url(#clip0_11_1078)">
<rect width="44" height="44" rx="16" fill="url(#paint0_linear_11_1078)"/>
<g filter="url(#filter0_d_11_1078)">
<path d="M19 15V25H16V15H19ZM15 13C14.4477 13 14 13.4477 14 14V26C14 26.5523 14.4477 27 15 27H20C20.5523 27 21 26.5523 21 26V14C21 13.4477 20.5523 13 20 13H15ZM25 19V25H28V19H25ZM23 18C23 17.4477 23.4477 17 24 17H29C29.5523 17 30 17.4477 30 18V26C30 26.5523 29.5523 27 29 27H24C23.4477 27 23 26.5523 23 26V18ZM31 29H13V31H31V29Z" fill="white"/>
</g>
</g>
<defs>
<filter id="filter0_d_11_1078" x="9" y="11" width="26" height="26" filterUnits="userSpaceOnUse" color-interpolation-filters="sRGB">
<feFlood flood-opacity="0" result="BackgroundImageFix"/>
<feColorMatrix in="SourceAlpha" type="matrix" values="0 0 0 0 0 0 0 0 0 0 0 0 0 0 0 0 0 0 127 0" result="hardAlpha"/>
<feOffset dy="2"/>
<feGaussianBlur stdDeviation="2"/>
<feComposite in2="hardAlpha" operator="out"/>
<feColorMatrix type="matrix" values="0 0 0 0 0.00358123 0 0 0 0 0.244381 0 0 0 0 0.801232 0 0 0 1 0"/>
<feBlend mode="normal" in2="BackgroundImageFix" result="effect1_dropShadow_11_1078"/>
<feBlend mode="normal" in="SourceGraphic" in2="effect1_dropShadow_11_1078" result="shape"/>
</filter>
<linearGradient id="paint0_linear_11_1078" x1="22" y1="0" x2="22" y2="44" gradientUnits="userSpaceOnUse">
<stop stop-color="#87ABFF"/>
<stop offset="1" stop-color="#2466FF"/>
</linearGradient>
<clipPath id="clip0_11_1078">
<rect width="44" height="44" rx="16" fill="white"/>
</clipPath>
</defs>
</svg>
