<svg width="42" height="42" viewBox="0 0 42 42" fill="none" xmlns="http://www.w3.org/2000/svg">
<g clip-path="url(#clip0_11_1164)">
<rect width="42" height="42" rx="8" fill="url(#paint0_linear_11_1164)"/>
<g filter="url(#filter0_d_11_1164)">
<path d="M21 19C23.2091 19 25 17.2091 25 15C25 12.7909 23.2091 11 21 11C18.7909 11 17 12.7909 17 15C17 17.2091 18.7909 19 21 19ZM14.5 22C15.8807 22 17 20.8807 17 19.5C17 18.1193 15.8807 17 14.5 17C13.1193 17 12 18.1193 12 19.5C12 20.8807 13.1193 22 14.5 22ZM30 19.5C30 20.8807 28.8807 22 27.5 22C26.1193 22 25 20.8807 25 19.5C25 18.1193 26.1193 17 27.5 17C28.8807 17 30 18.1193 30 19.5ZM21 20C23.7614 20 26 22.2386 26 25V31H16V25C16 22.2386 18.2386 20 21 20ZM14 24.9999C14 24.307 14.1007 23.6376 14.2882 23.0056L14.1186 23.0204C12.365 23.2104 11 24.6958 11 26.4999V30.9999H14V24.9999ZM31 30.9999V26.4999C31 24.6378 29.5459 23.1153 27.7118 23.0056C27.8993 23.6376 28 24.307 28 24.9999V30.9999H31Z" fill="url(#paint1_linear_11_1164)"/>
</g>
</g>
<defs>
<filter id="filter0_d_11_1164" x="5.5" y="11" width="31" height="32.5" filterUnits="userSpaceOnUse" color-interpolation-filters="sRGB">
<feFlood flood-opacity="0" result="BackgroundImageFix"/>
<feColorMatrix in="SourceAlpha" type="matrix" values="0 0 0 0 0 0 0 0 0 0 0 0 0 0 0 0 0 0 127 0" result="hardAlpha"/>
<feOffset dy="7"/>
<feGaussianBlur stdDeviation="2.75"/>
<feComposite in2="hardAlpha" operator="out"/>
<feColorMatrix type="matrix" values="0 0 0 0 0.0852269 0 0 0 0 0.26882 0 0 0 0 0.693378 0 0 0 1 0"/>
<feBlend mode="normal" in2="BackgroundImageFix" result="effect1_dropShadow_11_1164"/>
<feBlend mode="normal" in="SourceGraphic" in2="effect1_dropShadow_11_1164" result="shape"/>
</filter>
<linearGradient id="paint0_linear_11_1164" x1="21" y1="0" x2="21" y2="42" gradientUnits="userSpaceOnUse">
<stop stop-color="#87ABFF"/>
<stop offset="1" stop-color="#2466FF"/>
</linearGradient>
<linearGradient id="paint1_linear_11_1164" x1="21" y1="11" x2="21" y2="31" gradientUnits="userSpaceOnUse">
<stop stop-color="white"/>
<stop offset="1" stop-color="#D0DEFF"/>
</linearGradient>
<clipPath id="clip0_11_1164">
<rect width="42" height="42" rx="8" fill="white"/>
</clipPath>
</defs>
</svg>
