<svg width="17" height="17" viewBox="0 0 17 17" fill="none" xmlns="http://www.w3.org/2000/svg">
<path fill-rule="evenodd" clip-rule="evenodd" d="M7.56164 1.7054e-08C6.35576 0.000102751 5.16739 0.28858 4.09567 0.841365C3.02396 1.39415 2.09997 2.19521 1.40081 3.17772C0.701652 4.16022 0.247586 5.29569 0.0764994 6.48937C-0.0945875 7.68305 0.0222654 8.90034 0.417309 10.0397C0.812353 11.179 1.47413 12.2074 2.34743 13.0389C3.22074 13.8705 4.28024 14.4811 5.43754 14.8199C6.59484 15.1587 7.81639 15.2159 9.00027 14.9866C10.1841 14.7573 11.296 14.2482 12.2431 13.5018L15.4922 16.7509C15.66 16.913 15.8848 17.0026 16.1181 17.0006C16.3513 16.9986 16.5745 16.905 16.7394 16.7401C16.9044 16.5751 16.9979 16.352 17 16.1187C17.002 15.8854 16.9123 15.6607 16.7503 15.4929L13.5011 12.2438C14.3801 11.1287 14.9274 9.78862 15.0804 8.37699C15.2334 6.96535 14.9858 5.53917 14.3661 4.26165C13.7464 2.98414 12.7795 1.9069 11.5761 1.15323C10.3728 0.399561 8.98154 -9.53233e-05 7.56164 1.7054e-08ZM1.77872 7.56228C1.77872 6.02856 2.38799 4.55765 3.4725 3.47314C4.557 2.38863 6.02791 1.77936 7.56164 1.77936C9.09537 1.77936 10.5663 2.38863 11.6508 3.47314C12.7353 4.55765 13.3446 6.02856 13.3446 7.56228C13.3446 9.09601 12.7353 10.5669 11.6508 11.6514C10.5663 12.7359 9.09537 13.3452 7.56164 13.3452C6.02791 13.3452 4.557 12.7359 3.4725 11.6514C2.38799 10.5669 1.77872 9.09601 1.77872 7.56228Z" fill="#D2D2D2"/>
</svg>
