<svg width="20" height="20" viewBox="0 0 20 20" fill="none" xmlns="http://www.w3.org/2000/svg">
<path d="M18.3337 14.1685C18.3328 16.5609 16.6517 18.5605 14.4063 19.0513L13.8747 17.4563C14.878 17.2925 15.7307 16.6809 16.2211 15.8333H14.167C13.2465 15.8333 12.5003 15.0871 12.5003 14.1666V10.8333C12.5003 9.91279 13.2465 9.16663 14.167 9.16663H16.6154C16.2053 5.87803 13.4 3.33329 10.0003 3.33329C6.60064 3.33329 3.79532 5.87803 3.38523 9.16663H5.83366C6.75413 9.16663 7.50033 9.91279 7.50033 10.8333V14.1666C7.50033 15.0871 6.75413 15.8333 5.83366 15.8333H3.33366C2.41318 15.8333 1.66699 15.0871 1.66699 14.1666V9.99996C1.66699 5.39758 5.39795 1.66663 10.0003 1.66663C14.6027 1.66663 18.3337 5.39758 18.3337 9.99996V10.8322V10.8333V14.1666V14.1685ZM16.667 14.1666V10.8333H14.167V14.1666H16.667ZM3.33366 10.8333V14.1666H5.83366V10.8333H3.33366Z" fill="#333333"/>
</svg>
