<svg width="20" height="20" viewBox="0 0 20 20" fill="none" xmlns="http://www.w3.org/2000/svg">
<path d="M4.80268 14.1667H16.667V4.16667H3.33366V15.3209L4.80268 14.1667ZM5.37912 15.8333L1.66699 18.75V3.33333C1.66699 2.8731 2.04009 2.5 2.50033 2.5H17.5003C17.9606 2.5 18.3337 2.8731 18.3337 3.33333V15C18.3337 15.4602 17.9606 15.8333 17.5003 15.8333H5.37912ZM9.16699 11.6667H10.8337V13.3333H9.16699V11.6667ZM7.13975 7.34455C7.40563 6.00766 8.58533 5 10.0003 5C11.6112 5 12.917 6.30583 12.917 7.91667C12.917 9.5275 11.6112 10.8333 10.0003 10.8333H9.16699V9.16667H10.0003C10.6907 9.16667 11.2503 8.607 11.2503 7.91667C11.2503 7.22631 10.6907 6.66667 10.0003 6.66667C9.39391 6.66667 8.88833 7.09852 8.77433 7.67147L7.13975 7.34455Z" fill="#333333"/>
</svg>
