<svg width="20" height="20" viewBox="0 0 20 20" fill="none" xmlns="http://www.w3.org/2000/svg">
<path d="M10.0003 1.66663C14.6027 1.66663 18.3337 5.39758 18.3337 9.99996C18.3337 14.6023 14.6027 18.3333 10.0003 18.3333C5.39795 18.3333 1.66699 14.6023 1.66699 9.99996C1.66699 5.39758 5.39795 1.66663 10.0003 1.66663ZM10.1334 13.3333C8.43724 13.3333 6.91018 14.0572 5.84429 15.213C6.98398 16.1228 8.42866 16.6666 10.0003 16.6666C11.6416 16.6666 13.1442 16.0735 14.3058 15.09C13.2467 14.0061 11.7686 13.3333 10.1334 13.3333ZM10.0003 3.33329C6.31843 3.33329 3.33366 6.31806 3.33366 9.99996C3.33366 11.5088 3.83491 12.9005 4.67997 14.0178C6.04732 12.57 7.98486 11.6666 10.1334 11.6666C12.2037 11.6666 14.0781 12.5055 15.4352 13.8618C16.2108 12.7722 16.667 11.4394 16.667 9.99996C16.667 6.31806 13.6822 3.33329 10.0003 3.33329ZM10.0003 4.16663C11.8412 4.16663 13.3337 5.65901 13.3337 7.49996C13.3337 9.34088 11.8412 10.8333 10.0003 10.8333C8.15938 10.8333 6.66699 9.34088 6.66699 7.49996C6.66699 5.65901 8.15938 4.16663 10.0003 4.16663ZM10.0003 5.83329C9.07983 5.83329 8.33366 6.57948 8.33366 7.49996C8.33366 8.42046 9.07983 9.16663 10.0003 9.16663C10.9208 9.16663 11.667 8.42046 11.667 7.49996C11.667 6.57948 10.9208 5.83329 10.0003 5.83329Z" fill="#333333"/>
</svg>
