<svg width="20" height="20" viewBox="0 0 20 20" fill="none" xmlns="http://www.w3.org/2000/svg">
<path d="M3.15256 2.35502L10 0.833374L16.8474 2.35502C17.2287 2.43976 17.5 2.77793 17.5 3.16852V11.4908C17.5 13.1625 16.6645 14.7237 15.2735 15.651L10 19.1667L4.7265 15.651C3.33551 14.7237 2.5 13.1625 2.5 11.4908V3.16852C2.5 2.77793 2.77128 2.43976 3.15256 2.35502ZM4.16667 3.83699V11.4908C4.16667 12.6053 4.72367 13.646 5.651 14.2643L10 17.1636L14.349 14.2643C15.2763 13.646 15.8333 12.6053 15.8333 11.4908V3.83699L10 2.5407L4.16667 3.83699ZM10 9.16671C8.84942 9.16671 7.91667 8.23396 7.91667 7.08337C7.91667 5.93278 8.84942 5.00004 10 5.00004C11.1506 5.00004 12.0833 5.93278 12.0833 7.08337C12.0833 8.23396 11.1506 9.16671 10 9.16671ZM6.27288 13.3334C6.48016 11.4584 8.06977 10 10 10C11.9303 10 13.5198 11.4584 13.7271 13.3334H6.27288Z" fill="#333333"/>
</svg>
