<svg width="20" height="20" viewBox="0 0 20 20" fill="none" xmlns="http://www.w3.org/2000/svg">
<path d="M9.99967 0.833374L17.9163 5.41671V14.5834L9.99967 19.1667L2.08301 14.5834V5.41671L9.99967 0.833374ZM9.99967 2.75921L3.74967 6.37763V13.6225L9.99967 17.2409L16.2497 13.6225V6.37763L9.99967 2.75921ZM9.99967 13.3334C8.15872 13.3334 6.66634 11.841 6.66634 10C6.66634 8.15909 8.15872 6.66671 9.99967 6.66671C11.8406 6.66671 13.333 8.15909 13.333 10C13.333 11.841 11.8406 13.3334 9.99967 13.3334ZM9.99967 11.6667C10.9202 11.6667 11.6663 10.9205 11.6663 10C11.6663 9.07954 10.9202 8.33337 9.99967 8.33337C9.07917 8.33337 8.33301 9.07954 8.33301 10C8.33301 10.9205 9.07917 11.6667 9.99967 11.6667Z" fill="#333333"/>
</svg>
