<svg width="20" height="20" viewBox="0 0 20 20" fill="none" xmlns="http://www.w3.org/2000/svg">
<path d="M5.62467 2.08337C7.58068 2.08337 9.16634 3.66903 9.16634 5.62504V9.16671H5.62467C3.66867 9.16671 2.08301 7.58105 2.08301 5.62504C2.08301 3.66903 3.66867 2.08337 5.62467 2.08337ZM7.49967 7.50004V5.62504C7.49967 4.58951 6.66021 3.75004 5.62467 3.75004C4.58914 3.75004 3.74967 4.58951 3.74967 5.62504C3.74967 6.66057 4.58914 7.50004 5.62467 7.50004H7.49967ZM5.62467 10.8334H9.16634V14.375C9.16634 16.331 7.58068 17.9167 5.62467 17.9167C3.66867 17.9167 2.08301 16.331 2.08301 14.375C2.08301 12.419 3.66867 10.8334 5.62467 10.8334ZM5.62467 12.5C4.58914 12.5 3.74967 13.3395 3.74967 14.375C3.74967 15.4105 4.58914 16.25 5.62467 16.25C6.66021 16.25 7.49967 15.4105 7.49967 14.375V12.5H5.62467ZM14.3747 2.08337C16.3307 2.08337 17.9163 3.66903 17.9163 5.62504C17.9163 7.58105 16.3307 9.16671 14.3747 9.16671H10.833V5.62504C10.833 3.66903 12.4187 2.08337 14.3747 2.08337ZM14.3747 7.50004C15.4102 7.50004 16.2497 6.66057 16.2497 5.62504C16.2497 4.58951 15.4102 3.75004 14.3747 3.75004C13.3392 3.75004 12.4997 4.58951 12.4997 5.62504V7.50004H14.3747ZM10.833 10.8334H14.3747C16.3307 10.8334 17.9163 12.419 17.9163 14.375C17.9163 16.331 16.3307 17.9167 14.3747 17.9167C12.4187 17.9167 10.833 16.331 10.833 14.375V10.8334ZM12.4997 12.5V14.375C12.4997 15.4105 13.3392 16.25 14.3747 16.25C15.4102 16.25 16.2497 15.4105 16.2497 14.375C16.2497 13.3395 15.4102 12.5 14.3747 12.5H12.4997Z" fill="#333333"/>
</svg>
