<svg width="28" height="28" viewBox="0 0 28 28" fill="none" xmlns="http://www.w3.org/2000/svg">
<path d="M18.6667 19.8333V18.6667H15.1667V15.1667H18.6667V17.5H21V19.8333H19.8333V22.1667H17.5V24.5H15.1667V21H17.5V19.8333H18.6667ZM24.5 24.5H19.8333V22.1667H22.1667V19.8333H24.5V24.5ZM3.5 3.5H12.8333V12.8333H3.5V3.5ZM5.83333 5.83333V10.5H10.5V5.83333H5.83333ZM15.1667 3.5H24.5V12.8333H15.1667V3.5ZM17.5 5.83333V10.5H22.1667V5.83333H17.5ZM3.5 15.1667H12.8333V24.5H3.5V15.1667ZM5.83333 17.5V22.1667H10.5V17.5H5.83333ZM21 15.1667H24.5V17.5H21V15.1667ZM7 7H9.33333V9.33333H7V7ZM7 18.6667H9.33333V21H7V18.6667ZM18.6667 7H21V9.33333H18.6667V7Z" fill="#999999"/>
</svg>
